<mxfile host="app.diagrams.net" modified="2023-09-27T08:30:01.761Z" agent="Mozilla/5.0 (Windows NT 10.0; Win64; x64) AppleWebKit/537.36 (KHTML, like Gecko) Chrome/116.0.0.0 Safari/537.36 OPR/102.0.0.0" etag="vI3-S1ibnbONfGST4bYD" version="21.2.1" type="device">
  <diagram id="R2lEEEUBdFMjLlhIrx00" name="Page-1">
    <mxGraphModel dx="3373" dy="1453" grid="1" gridSize="10" guides="1" tooltips="1" connect="1" arrows="1" fold="1" page="1" pageScale="1" pageWidth="850" pageHeight="1100" background="#FFFFFF" math="0" shadow="0" extFonts="Permanent Marker^https://fonts.googleapis.com/css?family=Permanent+Marker">
      <root>
        <mxCell id="0" />
        <mxCell id="1" parent="0" />
        <mxCell id="5I6KbbuqI9N9IZFCoAGK-53" value="" style="rounded=0;whiteSpace=wrap;html=1;fontSize=20;strokeWidth=3;" parent="1" vertex="1">
          <mxGeometry x="-780" y="1365" width="730" height="400" as="geometry" />
        </mxCell>
        <mxCell id="iftpOIWhje2gakNTgD5A-1" value="" style="rounded=0;whiteSpace=wrap;html=1;spacing=2;strokeWidth=2;" parent="1" vertex="1">
          <mxGeometry x="480" y="175" width="1390" height="1910" as="geometry" />
        </mxCell>
        <mxCell id="iftpOIWhje2gakNTgD5A-53" value="&lt;span style=&quot;font-size: 30px;&quot;&gt;app/Http/models&lt;/span&gt;" style="points=[[0.25,0,0],[0.5,0,0],[0.75,0,0],[1,0.25,0],[1,0.5,0],[1,0.75,0],[0.75,1,0],[0.5,1,0],[0.25,1,0],[0,0.75,0],[0,0.5,0],[0,0.25,0]];shape=mxgraph.bpmn.task;whiteSpace=wrap;rectStyle=rounded;size=10;html=1;container=1;expand=0;collapsible=0;taskMarker=abstract;align=left;verticalAlign=top;labelBackgroundColor=none;fontSize=30;fontStyle=1;fillColor=#D5E8D4;fontColor=default;" parent="1" vertex="1">
          <mxGeometry x="740" y="1495" width="1000" height="362.61" as="geometry" />
        </mxCell>
        <mxCell id="klRfohYhWpBR4-_uK9t3-46" value="TheLoai" style="shape=image;html=1;verticalAlign=top;verticalLabelPosition=bottom;labelBackgroundColor=none;imageAspect=0;aspect=fixed;image=https://cdn1.iconfinder.com/data/icons/bootstrap-vol-3/16/filetype-php-128.png;fontSize=30;" vertex="1" parent="iftpOIWhje2gakNTgD5A-53">
          <mxGeometry x="820" y="110" width="128" height="128" as="geometry" />
        </mxCell>
        <mxCell id="klRfohYhWpBR4-_uK9t3-45" value="SanPham" style="shape=image;html=1;verticalAlign=top;verticalLabelPosition=bottom;labelBackgroundColor=none;imageAspect=0;aspect=fixed;image=https://cdn1.iconfinder.com/data/icons/bootstrap-vol-3/16/filetype-php-128.png;fontSize=30;" vertex="1" parent="iftpOIWhje2gakNTgD5A-53">
          <mxGeometry x="640" y="110" width="128" height="128" as="geometry" />
        </mxCell>
        <mxCell id="klRfohYhWpBR4-_uK9t3-44" value="DanhMuc" style="shape=image;html=1;verticalAlign=top;verticalLabelPosition=bottom;labelBackgroundColor=none;imageAspect=0;aspect=fixed;image=https://cdn1.iconfinder.com/data/icons/bootstrap-vol-3/16/filetype-php-128.png;fontSize=30;" vertex="1" parent="iftpOIWhje2gakNTgD5A-53">
          <mxGeometry x="450" y="110" width="128" height="128" as="geometry" />
        </mxCell>
        <mxCell id="klRfohYhWpBR4-_uK9t3-43" value="Bill" style="shape=image;html=1;verticalAlign=top;verticalLabelPosition=bottom;labelBackgroundColor=none;imageAspect=0;aspect=fixed;image=https://cdn1.iconfinder.com/data/icons/bootstrap-vol-3/16/filetype-php-128.png;fontSize=31;" vertex="1" parent="iftpOIWhje2gakNTgD5A-53">
          <mxGeometry x="70" y="109.99999999999996" width="128" height="128" as="geometry" />
        </mxCell>
        <mxCell id="klRfohYhWpBR4-_uK9t3-47" value="Cart" style="shape=image;html=1;verticalAlign=top;verticalLabelPosition=bottom;labelBackgroundColor=none;imageAspect=0;aspect=fixed;image=https://cdn1.iconfinder.com/data/icons/bootstrap-vol-3/16/filetype-php-128.png;fontSize=30;" vertex="1" parent="iftpOIWhje2gakNTgD5A-53">
          <mxGeometry x="260" y="110" width="128" height="128" as="geometry" />
        </mxCell>
        <mxCell id="iftpOIWhje2gakNTgD5A-6" value="&lt;span style=&quot;font-size: 30px;&quot;&gt;resources/views&lt;/span&gt;" style="points=[[0.25,0,0],[0.5,0,0],[0.75,0,0],[1,0.25,0],[1,0.5,0],[1,0.75,0],[0.75,1,0],[0.5,1,0],[0.25,1,0],[0,0.75,0],[0,0.5,0],[0,0.25,0]];shape=mxgraph.bpmn.task;whiteSpace=wrap;rectStyle=rounded;size=10;html=1;container=1;expand=0;collapsible=0;taskMarker=abstract;align=left;verticalAlign=top;labelBackgroundColor=none;fontStyle=1;fontSize=30;fillColor=#D5E8D4;" parent="1" vertex="1">
          <mxGeometry x="740" y="285" width="1000" height="520" as="geometry" />
        </mxCell>
        <mxCell id="5I6KbbuqI9N9IZFCoAGK-5" value="layouts" style="image;aspect=fixed;html=1;points=[];align=center;fontSize=20;image=img/lib/azure2/general/Folder_Blank.svg;labelBackgroundColor=none;" parent="iftpOIWhje2gakNTgD5A-6" vertex="1">
          <mxGeometry x="180" y="100" width="96.38" height="78.21" as="geometry" />
        </mxCell>
        <mxCell id="klRfohYhWpBR4-_uK9t3-5" value="home.blade" style="shape=image;html=1;verticalAlign=top;verticalLabelPosition=bottom;labelBackgroundColor=none;imageAspect=0;aspect=fixed;image=https://cdn1.iconfinder.com/data/icons/bootstrap-vol-3/16/filetype-php-128.png;fontSize=20;" vertex="1" parent="iftpOIWhje2gakNTgD5A-6">
          <mxGeometry x="79.99584415584415" y="260.00000000000006" width="92.40646700238538" height="92.40646700238538" as="geometry" />
        </mxCell>
        <mxCell id="klRfohYhWpBR4-_uK9t3-7" value="notfound.blade" style="shape=image;html=1;verticalAlign=top;verticalLabelPosition=bottom;labelBackgroundColor=none;imageAspect=0;aspect=fixed;image=https://cdn1.iconfinder.com/data/icons/bootstrap-vol-3/16/filetype-php-128.png;fontSize=20;" vertex="1" parent="iftpOIWhje2gakNTgD5A-6">
          <mxGeometry x="276.37523809523805" y="260.00000000000006" width="92.40646700238538" height="92.40646700238538" as="geometry" />
        </mxCell>
        <mxCell id="5I6KbbuqI9N9IZFCoAGK-3" value="nguoidung" style="image;aspect=fixed;html=1;points=[];align=center;fontSize=20;image=img/lib/azure2/general/Folder_Blank.svg;labelBackgroundColor=none;" parent="iftpOIWhje2gakNTgD5A-6" vertex="1">
          <mxGeometry x="320" y="100" width="96.38" height="78.22" as="geometry" />
        </mxCell>
        <mxCell id="5I6KbbuqI9N9IZFCoAGK-11" value="admin" style="image;aspect=fixed;html=1;points=[];align=center;fontSize=20;image=img/lib/azure2/general/Folder_Blank.svg;labelBackgroundColor=none;" parent="iftpOIWhje2gakNTgD5A-6" vertex="1">
          <mxGeometry x="430" y="20" width="552.46" height="448.38" as="geometry" />
        </mxCell>
        <mxCell id="5I6KbbuqI9N9IZFCoAGK-14" value="danhmuc" style="sketch=0;pointerEvents=1;shadow=0;dashed=0;html=1;strokeColor=none;labelPosition=center;verticalLabelPosition=bottom;verticalAlign=top;outlineConnect=0;align=center;shape=mxgraph.office.concepts.folder;fillColor=#2072B8;fontSize=20;" parent="iftpOIWhje2gakNTgD5A-6" vertex="1">
          <mxGeometry x="509.99662337662335" y="119.1" width="64.93506493506493" height="75.48387096774194" as="geometry" />
        </mxCell>
        <mxCell id="5I6KbbuqI9N9IZFCoAGK-16" value="danhsachdonhang" style="sketch=0;pointerEvents=1;shadow=0;dashed=0;html=1;strokeColor=none;labelPosition=center;verticalLabelPosition=bottom;verticalAlign=top;outlineConnect=0;align=center;shape=mxgraph.office.concepts.folder;fillColor=#2072B8;fontSize=20;" parent="iftpOIWhje2gakNTgD5A-6" vertex="1">
          <mxGeometry x="688.3077922077922" y="119.09677419354838" width="64.93506493506493" height="75.48387096774194" as="geometry" />
        </mxCell>
        <mxCell id="5I6KbbuqI9N9IZFCoAGK-1" value="auth" style="image;aspect=fixed;html=1;points=[];align=center;fontSize=20;image=img/lib/azure2/general/Folder_Blank.svg;labelBackgroundColor=none;" parent="iftpOIWhje2gakNTgD5A-6" vertex="1">
          <mxGeometry x="40" y="100" width="96.38" height="78.22" as="geometry" />
        </mxCell>
        <mxCell id="klRfohYhWpBR4-_uK9t3-11" value="theloai" style="sketch=0;pointerEvents=1;shadow=0;dashed=0;html=1;strokeColor=none;labelPosition=center;verticalLabelPosition=bottom;verticalAlign=top;outlineConnect=0;align=center;shape=mxgraph.office.concepts.folder;fillColor=#2072B8;fontSize=20;" vertex="1" parent="iftpOIWhje2gakNTgD5A-6">
          <mxGeometry x="589.9977922077921" y="276.9200000000001" width="64.93506493506493" height="75.48387096774194" as="geometry" />
        </mxCell>
        <mxCell id="klRfohYhWpBR4-_uK9t3-10" value="sanpham" style="sketch=0;pointerEvents=1;shadow=0;dashed=0;html=1;strokeColor=none;labelPosition=center;verticalLabelPosition=bottom;verticalAlign=top;outlineConnect=0;align=center;shape=mxgraph.office.concepts.folder;fillColor=#2072B8;fontSize=20;" vertex="1" parent="iftpOIWhje2gakNTgD5A-6">
          <mxGeometry x="857.1466233766233" y="119.10000000000005" width="64.93506493506493" height="75.48387096774194" as="geometry" />
        </mxCell>
        <mxCell id="klRfohYhWpBR4-_uK9t3-22" value="thongke" style="sketch=0;pointerEvents=1;shadow=0;dashed=0;html=1;strokeColor=none;labelPosition=center;verticalLabelPosition=bottom;verticalAlign=top;outlineConnect=0;align=center;shape=mxgraph.office.concepts.folder;fillColor=#2072B8;fontSize=20;" vertex="1" parent="iftpOIWhje2gakNTgD5A-6">
          <mxGeometry x="769.9977922077921" y="276.9200000000001" width="64.93506493506493" height="75.48387096774194" as="geometry" />
        </mxCell>
        <mxCell id="iftpOIWhje2gakNTgD5A-3" value="&lt;span style=&quot;font-size: 30px;&quot;&gt;sever&lt;/span&gt;" style="rounded=0;whiteSpace=wrap;html=1;fontStyle=1;fontSize=30;" parent="1" vertex="1">
          <mxGeometry x="520" y="215" width="150" height="100" as="geometry" />
        </mxCell>
        <mxCell id="iftpOIWhje2gakNTgD5A-28" value="&lt;span style=&quot;font-size: 30px;&quot;&gt;app/Http/Controllers&lt;/span&gt;" style="points=[[0.25,0,0],[0.5,0,0],[0.75,0,0],[1,0.25,0],[1,0.5,0],[1,0.75,0],[0.75,1,0],[0.5,1,0],[0.25,1,0],[0,0.75,0],[0,0.5,0],[0,0.25,0]];shape=mxgraph.bpmn.task;whiteSpace=wrap;rectStyle=rounded;size=10;html=1;container=1;expand=0;collapsible=0;taskMarker=abstract;align=left;verticalAlign=top;labelBackgroundColor=none;fontSize=30;fontStyle=1;fillColor=#D5E8D4;" parent="1" vertex="1">
          <mxGeometry x="750" y="875" width="1000" height="490" as="geometry" />
        </mxCell>
        <mxCell id="5I6KbbuqI9N9IZFCoAGK-19" value="&lt;font style=&quot;font-size: 20px;&quot;&gt;Admin&lt;/font&gt;" style="image;aspect=fixed;html=1;points=[];align=center;fontSize=12;image=img/lib/azure2/general/Folder_Blank.svg;labelBackgroundColor=none;" parent="iftpOIWhje2gakNTgD5A-28" vertex="1">
          <mxGeometry x="105" y="59.76" width="185.12" height="150.24" as="geometry" />
        </mxCell>
        <mxCell id="klRfohYhWpBR4-_uK9t3-24" value="&lt;font style=&quot;font-size: 20px;&quot;&gt;NguoiDung&lt;/font&gt;" style="image;aspect=fixed;html=1;points=[];align=center;fontSize=12;image=img/lib/azure2/general/Folder_Blank.svg;labelBackgroundColor=none;" vertex="1" parent="iftpOIWhje2gakNTgD5A-28">
          <mxGeometry x="670" y="59.76" width="185.11" height="150.24" as="geometry" />
        </mxCell>
        <mxCell id="klRfohYhWpBR4-_uK9t3-25" value="&lt;font style=&quot;font-size: 20px;&quot;&gt;Auth&lt;/font&gt;" style="image;aspect=fixed;html=1;points=[];align=center;fontSize=12;image=img/lib/azure2/general/Folder_Blank.svg;labelBackgroundColor=none;" vertex="1" parent="iftpOIWhje2gakNTgD5A-28">
          <mxGeometry x="380" y="59.76" width="185.12" height="150.24" as="geometry" />
        </mxCell>
        <mxCell id="klRfohYhWpBR4-_uK9t3-32" value="AdminController" style="shape=image;html=1;verticalAlign=top;verticalLabelPosition=bottom;labelBackgroundColor=none;imageAspect=0;aspect=fixed;image=https://cdn1.iconfinder.com/data/icons/bootstrap-vol-3/16/filetype-php-128.png;fontSize=20;" vertex="1" parent="iftpOIWhje2gakNTgD5A-28">
          <mxGeometry x="60" y="290" width="128" height="128" as="geometry" />
        </mxCell>
        <mxCell id="klRfohYhWpBR4-_uK9t3-35" value="NotFoundController" style="shape=image;html=1;verticalAlign=top;verticalLabelPosition=bottom;labelBackgroundColor=none;imageAspect=0;aspect=fixed;image=https://cdn1.iconfinder.com/data/icons/bootstrap-vol-3/16/filetype-php-128.png;fontSize=20;" vertex="1" parent="iftpOIWhje2gakNTgD5A-28">
          <mxGeometry x="780" y="290" width="128" height="128" as="geometry" />
        </mxCell>
        <mxCell id="klRfohYhWpBR4-_uK9t3-34" value="HomeController" style="shape=image;html=1;verticalAlign=top;verticalLabelPosition=bottom;labelBackgroundColor=none;imageAspect=0;aspect=fixed;image=https://cdn1.iconfinder.com/data/icons/bootstrap-vol-3/16/filetype-php-128.png;fontSize=20;" vertex="1" parent="iftpOIWhje2gakNTgD5A-28">
          <mxGeometry x="530" y="290" width="128" height="128" as="geometry" />
        </mxCell>
        <mxCell id="klRfohYhWpBR4-_uK9t3-33" value="AuthController" style="shape=image;html=1;verticalAlign=top;verticalLabelPosition=bottom;labelBackgroundColor=none;imageAspect=0;aspect=fixed;image=https://cdn1.iconfinder.com/data/icons/bootstrap-vol-3/16/filetype-php-128.png;fontSize=20;" vertex="1" parent="iftpOIWhje2gakNTgD5A-28">
          <mxGeometry x="280" y="290" width="128" height="128" as="geometry" />
        </mxCell>
        <mxCell id="klRfohYhWpBR4-_uK9t3-37" value="..." style="shape=image;html=1;verticalAlign=top;verticalLabelPosition=bottom;labelBackgroundColor=none;imageAspect=0;aspect=fixed;image=https://cdn1.iconfinder.com/data/icons/bootstrap-vol-3/16/filetype-php-128.png;fontSize=50;horizontal=1;labelPosition=center;align=center;labelBorderColor=none;spacing=1;spacingTop=-31;" vertex="1" parent="iftpOIWhje2gakNTgD5A-28">
          <mxGeometry x="158.56" y="95.88" width="78" height="78" as="geometry" />
        </mxCell>
        <mxCell id="klRfohYhWpBR4-_uK9t3-40" value="..." style="shape=image;html=1;verticalAlign=top;verticalLabelPosition=bottom;labelBackgroundColor=none;imageAspect=0;aspect=fixed;image=https://cdn1.iconfinder.com/data/icons/bootstrap-vol-3/16/filetype-php-128.png;fontSize=50;horizontal=1;labelPosition=center;align=center;labelBorderColor=none;spacing=1;spacingTop=-31;" vertex="1" parent="iftpOIWhje2gakNTgD5A-28">
          <mxGeometry x="723.55" y="95.88" width="78" height="78" as="geometry" />
        </mxCell>
        <mxCell id="klRfohYhWpBR4-_uK9t3-39" value="..." style="shape=image;html=1;verticalAlign=top;verticalLabelPosition=bottom;labelBackgroundColor=none;imageAspect=0;aspect=fixed;image=https://cdn1.iconfinder.com/data/icons/bootstrap-vol-3/16/filetype-php-128.png;fontSize=50;horizontal=1;labelPosition=center;align=center;labelBorderColor=none;spacing=1;spacingTop=-31;" vertex="1" parent="iftpOIWhje2gakNTgD5A-28">
          <mxGeometry x="433.55999999999995" y="95.88" width="78" height="78" as="geometry" />
        </mxCell>
        <mxCell id="klRfohYhWpBR4-_uK9t3-42" style="edgeStyle=orthogonalEdgeStyle;rounded=0;orthogonalLoop=1;jettySize=auto;html=1;exitX=0.5;exitY=1;exitDx=0;exitDy=0;entryX=0.75;entryY=1;entryDx=0;entryDy=0;" edge="1" parent="iftpOIWhje2gakNTgD5A-28" source="klRfohYhWpBR4-_uK9t3-40" target="klRfohYhWpBR4-_uK9t3-40">
          <mxGeometry relative="1" as="geometry" />
        </mxCell>
        <mxCell id="iftpOIWhje2gakNTgD5A-67" value="" style="verticalLabelPosition=bottom;html=1;verticalAlign=top;align=center;strokeColor=none;fillColor=#00BEF2;shape=mxgraph.azure.sql_database;" parent="1" vertex="1">
          <mxGeometry x="770" y="1937.7399999999998" width="100" height="120" as="geometry" />
        </mxCell>
        <mxCell id="iftpOIWhje2gakNTgD5A-68" value="" style="rounded=0;whiteSpace=wrap;html=1;" parent="1" vertex="1">
          <mxGeometry x="-780" y="700" width="600" height="450" as="geometry" />
        </mxCell>
        <mxCell id="iftpOIWhje2gakNTgD5A-71" value="" style="verticalLabelPosition=bottom;html=1;verticalAlign=top;align=center;strokeColor=none;fillColor=#00BEF2;shape=mxgraph.azure.laptop;pointerEvents=1;" parent="1" vertex="1">
          <mxGeometry x="-580" y="791.62" width="180" height="120" as="geometry" />
        </mxCell>
        <mxCell id="iftpOIWhje2gakNTgD5A-72" value="" style="dashed=0;outlineConnect=0;html=1;align=center;labelPosition=center;verticalLabelPosition=bottom;verticalAlign=top;shape=mxgraph.weblogos.chrome" parent="1" vertex="1">
          <mxGeometry x="-545" y="950" width="120" height="120" as="geometry" />
        </mxCell>
        <mxCell id="iftpOIWhje2gakNTgD5A-75" value="" style="shape=image;html=1;verticalAlign=top;verticalLabelPosition=bottom;labelBackgroundColor=#ffffff;imageAspect=0;aspect=fixed;image=https://cdn2.iconfinder.com/data/icons/browsers/Firefox.png" parent="1" vertex="1">
          <mxGeometry x="-345" y="950" width="128" height="128" as="geometry" />
        </mxCell>
        <mxCell id="iftpOIWhje2gakNTgD5A-76" value="&lt;span style=&quot;font-size: 31px;&quot;&gt;client&lt;/span&gt;" style="rounded=0;whiteSpace=wrap;html=1;fontStyle=1;fontSize=31;" parent="1" vertex="1">
          <mxGeometry x="-570" y="701" width="170" height="58.58" as="geometry" />
        </mxCell>
        <mxCell id="5I6KbbuqI9N9IZFCoAGK-33" value="&lt;font style=&quot;font-size: 25px;&quot;&gt;Eloquent/Model&lt;/font&gt;" style="rounded=0;whiteSpace=wrap;html=1;fontSize=25;strokeWidth=3;" parent="1" vertex="1">
          <mxGeometry x="1135" y="1955" width="210" height="102.74" as="geometry" />
        </mxCell>
        <mxCell id="5I6KbbuqI9N9IZFCoAGK-34" value="routes/&lt;br style=&quot;font-size: 30px;&quot;&gt;web.php" style="rounded=0;whiteSpace=wrap;html=1;fontSize=30;strokeWidth=3;" parent="1" vertex="1">
          <mxGeometry x="510" y="1045" width="140" height="150" as="geometry" />
        </mxCell>
        <mxCell id="5I6KbbuqI9N9IZFCoAGK-35" value="" style="endArrow=classic;startArrow=classic;html=1;rounded=0;fontSize=20;startSize=8;endSize=8;curved=1;strokeWidth=3;exitX=0.5;exitY=0;exitDx=0;exitDy=0;exitPerimeter=0;entryX=0.5;entryY=1;entryDx=0;entryDy=0;entryPerimeter=0;" parent="1" source="iftpOIWhje2gakNTgD5A-53" target="iftpOIWhje2gakNTgD5A-28" edge="1">
          <mxGeometry width="50" height="50" relative="1" as="geometry">
            <mxPoint x="1130" y="840" as="sourcePoint" />
            <mxPoint x="1180" y="790" as="targetPoint" />
          </mxGeometry>
        </mxCell>
        <mxCell id="5I6KbbuqI9N9IZFCoAGK-38" value="" style="endArrow=classic;startArrow=classic;html=1;rounded=0;fontSize=20;startSize=8;endSize=8;curved=1;strokeWidth=3;exitX=0.5;exitY=0;exitDx=0;exitDy=0;exitPerimeter=0;entryX=0.5;entryY=1;entryDx=0;entryDy=0;entryPerimeter=0;" parent="1" source="iftpOIWhje2gakNTgD5A-28" target="iftpOIWhje2gakNTgD5A-6" edge="1">
          <mxGeometry width="50" height="50" relative="1" as="geometry">
            <mxPoint x="620" y="997" as="sourcePoint" />
            <mxPoint x="719" y="938" as="targetPoint" />
          </mxGeometry>
        </mxCell>
        <mxCell id="5I6KbbuqI9N9IZFCoAGK-39" value="" style="endArrow=classic;startArrow=classic;html=1;rounded=0;fontSize=20;startSize=8;endSize=8;curved=1;strokeWidth=3;exitX=0.5;exitY=1;exitDx=0;exitDy=0;exitPerimeter=0;entryX=0.5;entryY=0;entryDx=0;entryDy=0;" parent="1" source="iftpOIWhje2gakNTgD5A-53" target="5I6KbbuqI9N9IZFCoAGK-33" edge="1">
          <mxGeometry width="50" height="50" relative="1" as="geometry">
            <mxPoint x="620" y="997" as="sourcePoint" />
            <mxPoint x="719" y="938" as="targetPoint" />
          </mxGeometry>
        </mxCell>
        <mxCell id="5I6KbbuqI9N9IZFCoAGK-40" value="" style="endArrow=classic;startArrow=classic;html=1;rounded=0;fontSize=20;startSize=8;endSize=8;curved=1;strokeWidth=3;exitX=1;exitY=0.5;exitDx=0;exitDy=0;exitPerimeter=0;" parent="1" source="iftpOIWhje2gakNTgD5A-67" target="5I6KbbuqI9N9IZFCoAGK-33" edge="1">
          <mxGeometry width="50" height="50" relative="1" as="geometry">
            <mxPoint x="681" y="1205" as="sourcePoint" />
            <mxPoint x="720" y="1300" as="targetPoint" />
          </mxGeometry>
        </mxCell>
        <mxCell id="5I6KbbuqI9N9IZFCoAGK-41" value="" style="endArrow=classic;startArrow=classic;html=1;rounded=0;fontSize=20;startSize=8;endSize=8;curved=1;strokeWidth=3;exitX=0;exitY=0.5;exitDx=0;exitDy=0;exitPerimeter=0;entryX=1;entryY=0.5;entryDx=0;entryDy=0;" parent="1" source="iftpOIWhje2gakNTgD5A-28" target="5I6KbbuqI9N9IZFCoAGK-34" edge="1">
          <mxGeometry width="50" height="50" relative="1" as="geometry">
            <mxPoint x="620" y="997" as="sourcePoint" />
            <mxPoint x="719" y="938" as="targetPoint" />
          </mxGeometry>
        </mxCell>
        <mxCell id="5I6KbbuqI9N9IZFCoAGK-42" value="v" style="endArrow=classic;html=1;rounded=0;fontSize=12;startSize=8;endSize=8;curved=1;exitX=1;exitY=0.25;exitDx=0;exitDy=0;entryX=0;entryY=0.25;entryDx=0;entryDy=0;fillColor=#ffff88;strokeColor=#E6E600;strokeWidth=3;" parent="1" source="iftpOIWhje2gakNTgD5A-68" target="5I6KbbuqI9N9IZFCoAGK-34" edge="1">
          <mxGeometry width="50" height="50" relative="1" as="geometry">
            <mxPoint x="-70" y="740" as="sourcePoint" />
            <mxPoint x="-20" y="690" as="targetPoint" />
          </mxGeometry>
        </mxCell>
        <mxCell id="5I6KbbuqI9N9IZFCoAGK-43" value="Requests&lt;br style=&quot;font-size: 30px;&quot;&gt;(HTTP protocol)" style="edgeLabel;html=1;align=center;verticalAlign=middle;resizable=0;points=[];fontSize=30;labelBackgroundColor=none;" parent="5I6KbbuqI9N9IZFCoAGK-42" vertex="1" connectable="0">
          <mxGeometry x="-0.2457" relative="1" as="geometry">
            <mxPoint as="offset" />
          </mxGeometry>
        </mxCell>
        <mxCell id="5I6KbbuqI9N9IZFCoAGK-46" value="v" style="endArrow=classic;html=1;rounded=0;fontSize=12;startSize=8;endSize=8;curved=1;fillColor=#ffff88;strokeColor=#E6E600;strokeWidth=3;exitX=0;exitY=0.5;exitDx=0;exitDy=0;entryX=0.998;entryY=0.807;entryDx=0;entryDy=0;entryPerimeter=0;" parent="1" source="5I6KbbuqI9N9IZFCoAGK-34" target="iftpOIWhje2gakNTgD5A-68" edge="1">
          <mxGeometry width="50" height="50" relative="1" as="geometry">
            <mxPoint x="-30" y="880" as="sourcePoint" />
            <mxPoint x="-220" y="770" as="targetPoint" />
            <Array as="points" />
          </mxGeometry>
        </mxCell>
        <mxCell id="5I6KbbuqI9N9IZFCoAGK-47" value="&lt;div style=&quot;font-size: 30px;&quot;&gt;Response&lt;/div&gt;&lt;div style=&quot;font-size: 30px;&quot;&gt;(HTML,CSS,JavaScript)&lt;/div&gt;" style="edgeLabel;html=1;align=center;verticalAlign=middle;resizable=0;points=[];fontSize=30;labelBackgroundColor=none;" parent="5I6KbbuqI9N9IZFCoAGK-46" vertex="1" connectable="0">
          <mxGeometry x="-0.2457" relative="1" as="geometry">
            <mxPoint as="offset" />
          </mxGeometry>
        </mxCell>
        <mxCell id="5I6KbbuqI9N9IZFCoAGK-49" value="&lt;font style=&quot;font-size: 25px;&quot;&gt;Class/File&lt;/font&gt;" style="rounded=0;whiteSpace=wrap;html=1;fontSize=25;strokeWidth=3;" parent="1" vertex="1">
          <mxGeometry x="-490" y="1417.26" width="160" height="90" as="geometry" />
        </mxCell>
        <mxCell id="5I6KbbuqI9N9IZFCoAGK-56" value="v" style="endArrow=classic;html=1;rounded=0;fontSize=12;startSize=8;endSize=8;curved=1;fillColor=#ffff88;strokeColor=#E6E600;strokeWidth=3;" parent="1" edge="1">
          <mxGeometry width="50" height="50" relative="1" as="geometry">
            <mxPoint x="-531" y="1640" as="sourcePoint" />
            <mxPoint x="-340" y="1640" as="targetPoint" />
            <Array as="points">
              <mxPoint x="-381" y="1640" />
            </Array>
          </mxGeometry>
        </mxCell>
        <mxCell id="5I6KbbuqI9N9IZFCoAGK-57" value="&lt;div&gt;Response/&lt;/div&gt;&lt;div&gt;Requests&lt;br style=&quot;border-color: var(--border-color);&quot;&gt;&lt;/div&gt;" style="edgeLabel;html=1;align=center;verticalAlign=middle;resizable=0;points=[];fontSize=16;" parent="5I6KbbuqI9N9IZFCoAGK-56" vertex="1" connectable="0">
          <mxGeometry x="-0.2457" relative="1" as="geometry">
            <mxPoint as="offset" />
          </mxGeometry>
        </mxCell>
        <mxCell id="klRfohYhWpBR4-_uK9t3-57" value="&lt;div&gt;Response/&lt;/div&gt;&lt;div&gt;Requests&lt;br style=&quot;border-color: var(--border-color);&quot;&gt;&lt;/div&gt;" style="edgeLabel;html=1;align=center;verticalAlign=middle;resizable=0;points=[];fontSize=16;" vertex="1" connectable="0" parent="5I6KbbuqI9N9IZFCoAGK-56">
          <mxGeometry x="-0.2457" relative="1" as="geometry">
            <mxPoint as="offset" />
          </mxGeometry>
        </mxCell>
        <mxCell id="5I6KbbuqI9N9IZFCoAGK-59" value="&lt;font style=&quot;font-size: 20px;&quot;&gt;Communication&lt;/font&gt;" style="text;html=1;strokeColor=none;fillColor=none;align=center;verticalAlign=middle;whiteSpace=wrap;rounded=0;fontSize=16;" parent="1" vertex="1">
          <mxGeometry x="-350" y="1330" width="120" height="30" as="geometry" />
        </mxCell>
        <mxCell id="klRfohYhWpBR4-_uK9t3-3" value="" style="shape=image;html=1;verticalAlign=top;verticalLabelPosition=bottom;labelBackgroundColor=#ffffff;imageAspect=0;aspect=fixed;image=https://cdn2.iconfinder.com/data/icons/social-media-2189/48/13-Opera-128.png" vertex="1" parent="1">
          <mxGeometry x="-730" y="950" width="128" height="128" as="geometry" />
        </mxCell>
        <mxCell id="klRfohYhWpBR4-_uK9t3-55" value="&lt;span style=&quot;background-color: rgb(255, 255, 255); font-size: 25px;&quot;&gt;Layer&lt;/span&gt;" style="points=[[0.25,0,0],[0.5,0,0],[0.75,0,0],[1,0.25,0],[1,0.5,0],[1,0.75,0],[0.75,1,0],[0.5,1,0],[0.25,1,0],[0,0.75,0],[0,0.5,0],[0,0.25,0]];shape=mxgraph.bpmn.task;whiteSpace=wrap;rectStyle=rounded;size=10;html=1;container=1;expand=0;collapsible=0;taskMarker=abstract;align=left;verticalAlign=top;labelBackgroundColor=#D5E8D4;fontSize=25;fontStyle=1;fillColor=#D5E8D4;" vertex="1" parent="1">
          <mxGeometry x="-708" y="1420" width="176" height="87.26" as="geometry" />
        </mxCell>
        <mxCell id="klRfohYhWpBR4-_uK9t3-56" value="package" style="image;aspect=fixed;html=1;points=[];align=center;fontSize=25;image=img/lib/azure2/general/Folder_Blank.svg;" vertex="1" parent="1">
          <mxGeometry x="-710" y="1580" width="120" height="97.39" as="geometry" />
        </mxCell>
        <mxCell id="klRfohYhWpBR4-_uK9t3-58" value="" style="endArrow=classic;startArrow=classic;html=1;rounded=0;fontSize=20;startSize=8;endSize=8;curved=1;strokeWidth=3;" edge="1" parent="1">
          <mxGeometry width="50" height="50" relative="1" as="geometry">
            <mxPoint x="-90" y="1640" as="sourcePoint" />
            <mxPoint x="-260" y="1640" as="targetPoint" />
          </mxGeometry>
        </mxCell>
        <mxCell id="klRfohYhWpBR4-_uK9t3-60" value="Text" style="edgeLabel;html=1;align=center;verticalAlign=middle;resizable=0;points=[];" vertex="1" connectable="0" parent="klRfohYhWpBR4-_uK9t3-58">
          <mxGeometry x="0.4314" y="3" relative="1" as="geometry">
            <mxPoint x="2" as="offset" />
          </mxGeometry>
        </mxCell>
        <mxCell id="klRfohYhWpBR4-_uK9t3-59" value="&lt;font style=&quot;font-size: 25px;&quot;&gt;DB&lt;/font&gt;" style="verticalLabelPosition=bottom;html=1;verticalAlign=top;align=center;strokeColor=none;fillColor=#00BEF2;shape=mxgraph.azure.sql_database;" vertex="1" parent="1">
          <mxGeometry x="-260.00000000000006" y="1410" width="100" height="120" as="geometry" />
        </mxCell>
      </root>
    </mxGraphModel>
  </diagram>
</mxfile>
